<svg width="512" height="512" viewBox="0 0 512 512" fill="none" xmlns="http://www.w3.org/2000/svg">
<g clip-path="url(#clip0_5_699)">
<path d="M133.895 219.461C137.76 220.451 140.308 223.173 143 226C145.544 224.813 147.176 223.834 149.25 221.875C153.195 219.185 155.275 219.4 160 220C162.5 221.5 162.5 221.5 164 224C164.673 228.286 164.462 231.307 162 235C163.628 235.039 163.628 235.039 165.289 235.078C166.734 235.134 168.18 235.192 169.625 235.25C170.338 235.264 171.051 235.278 171.785 235.293C176.909 235.528 179.982 236.569 184 240C187.587 244.511 188.489 247.414 188.391 253.148C188.385 253.806 188.379 254.463 188.373 255.141C188.351 257.219 188.301 259.297 188.25 261.375C188.23 262.793 188.212 264.211 188.195 265.629C188.151 269.086 188.083 272.543 188 276C188.683 275.981 189.365 275.962 190.069 275.943C191.415 275.921 191.415 275.921 192.789 275.898C193.678 275.88 194.567 275.861 195.483 275.841C199.281 276.081 201.216 277.481 204 280C207.579 284.519 208.489 287.41 208.391 293.148C208.385 293.806 208.379 294.463 208.373 295.141C208.351 297.219 208.301 299.297 208.25 301.375C208.23 302.793 208.212 304.211 208.195 305.629C208.151 309.086 208.083 312.543 208 316C209.102 315.954 210.204 315.907 211.34 315.859C239.74 315.026 263.522 327.591 284.27 346.364C286.197 348.186 288.053 350.064 289.902 351.965C290.894 352.983 290.894 352.983 291.906 354.021C293.189 355.351 294.458 356.693 295.713 358.049C302.619 365.271 310.021 365.296 319.562 365.875C349.386 368.033 380.41 373.933 401.59 396.715C406.029 403.908 405.379 412.806 405.566 420.955C405.737 426.343 406.468 430.804 408 436C408.303 438.859 408.334 441.689 408.312 444.562C408.308 445.346 408.303 446.13 408.298 446.937C408.072 458.309 406.458 469.255 398.332 477.742C392.163 483.435 386.266 484.303 378.125 484.125C375.444 484.084 372.763 484.042 370 484C370.33 478.39 370.66 472.78 371 467C374.288 466.772 377.576 466.544 380.863 466.316C384.026 466.113 384.026 466.113 387 465C390.17 456.821 392.573 443.978 388.996 435.668C387.878 432.674 387.76 430.406 387.762 427.219C387.746 426.129 387.729 425.04 387.713 423.918C387.696 421.639 387.691 419.361 387.697 417.082C387.679 410.542 387.679 410.542 384.711 404.906C383.816 404.277 382.922 403.648 382 403C381.328 402.464 380.657 401.927 379.965 401.375C363.505 390.212 342.948 386.009 323.406 384.289C322.726 384.228 322.045 384.167 321.344 384.105C317.898 383.8 314.452 383.517 311.002 383.265C297.615 382.155 289.374 378.372 280.688 368.187C264.778 349.685 241.756 335.325 217.221 333.205C211.258 332.825 205.293 332.852 199.321 332.855C197.877 332.852 196.434 332.848 194.99 332.845C191.105 332.836 187.219 332.833 183.333 332.833C180.902 332.832 178.472 332.83 176.041 332.827C167.556 332.818 159.07 332.814 150.585 332.815C142.681 332.815 134.778 332.805 126.875 332.789C120.076 332.776 113.276 332.771 106.477 332.771C102.421 332.771 98.3659 332.769 94.3105 332.758C90.5044 332.748 86.6983 332.748 82.8922 332.755C81.4958 332.757 80.0994 332.754 78.7029 332.748C76.7979 332.74 74.8928 332.746 72.9877 332.753C71.9216 332.752 70.8556 332.752 69.7572 332.751C66.9395 333.005 65.32 333.4 63 335C61.916 337.415 61.058 339.683 60.25 342.187C53.3611 361.847 41.2926 380.176 25 393.375C20.8569 397 19.225 400.122 18.5676 405.608C18.5266 406.942 18.5009 408.275 18.4883 409.609C18.4701 410.33 18.452 411.05 18.4333 411.793C18.3787 414.112 18.3447 416.43 18.3125 418.75C18.2818 420.341 18.2502 421.931 18.2178 423.522C18.1573 426.627 18.106 429.731 18.063 432.835C18.0148 436.257 17.9348 439.677 17.8398 443.098C17.8083 444.669 17.7782 446.241 17.75 447.812C17.7242 449.098 17.6984 450.383 17.6719 451.707C18.1507 456.512 19.8306 459.762 23.125 463.25C28.8333 466.725 34.398 467 41 467C41.495 475.415 41.495 475.415 42 484C28.4043 484.461 18.4105 483.667 7.99999 474C1.18015 466.612 -0.487489 457.896 -0.250012 448.125C-0.23688 447.169 -0.223748 446.213 -0.210217 445.228C-0.17563 443.062 -0.132524 440.896 -0.0825319 438.73C-0.00612884 435.276 0.0470696 431.823 0.0943175 428.369C0.14069 425.234 0.201747 422.099 0.266467 418.965C0.29688 417.418 0.323239 415.872 0.345325 414.326C0.56401 400.051 2.67305 389.961 13.2851 379.641C14.134 378.829 14.134 378.829 15 378C16.6887 376.356 18.353 374.686 20 373C20.669 372.315 21.338 371.631 22.0273 370.926C33.2334 359.03 40.4743 344.587 46.125 329.375C48.3001 323.77 52.0448 320.303 57 317C59.8241 316.059 61.5292 315.883 64.4492 315.902C65.2968 315.906 66.1443 315.909 67.0176 315.912C67.8986 315.92 68.7797 315.929 69.6875 315.937C71.0265 315.944 71.0265 315.944 72.3926 315.951C74.5951 315.963 76.7975 315.979 79 316C78.9895 315.315 78.979 314.63 78.9682 313.924C78.9264 310.783 78.9006 307.641 78.875 304.5C78.8582 303.422 78.8415 302.345 78.8242 301.234C78.7297 285.744 78.7297 285.744 83.375 280.625C86.2906 277.709 88.2147 276.148 92.3594 275.805C93.1483 275.828 93.9372 275.851 94.75 275.875C95.5492 275.893 96.3484 275.911 97.1719 275.93C97.7751 275.953 98.3784 275.976 99 276C98.9895 275.315 98.979 274.63 98.9682 273.924C98.9264 270.783 98.9006 267.641 98.875 264.5C98.8582 263.422 98.8415 262.345 98.8242 261.234C98.7297 245.744 98.7297 245.744 103.375 240.625C107.996 236.004 111.86 235.646 118.25 235.375C119.368 235.317 119.368 235.317 120.508 235.258C122.338 235.164 124.169 235.081 126 235C125.01 233.515 125.01 233.515 124 232C123.342 225.096 123.342 225.096 125.5 221.5C128.326 219.805 130.595 219.325 133.895 219.461ZM116 252C116 259.92 116 267.84 116 276C122.27 276 128.54 276 135 276C135 268.08 135 260.16 135 252C128.73 252 122.46 252 116 252ZM152 252C152 259.92 152 267.84 152 276C158.27 276 164.54 276 171 276C171 268.08 171 260.16 171 252C164.73 252 158.46 252 152 252ZM96 292C96 299.92 96 307.84 96 316C108.87 316 121.74 316 135 316C135 308.08 135 300.16 135 292C122.13 292 109.26 292 96 292ZM152 292C152 299.92 152 307.84 152 316C164.87 316 177.74 316 191 316C191 308.08 191 300.16 191 292C178.13 292 165.26 292 152 292Z" fill="#454545"/>
<path d="M199.25 116.875C200.662 118.116 202.074 119.358 203.467 120.62C205.676 122.609 207.939 124.533 210.2 126.463C211.405 127.492 212.609 128.524 213.81 129.558C217.31 132.572 220.847 135.53 224.437 138.437C228.92 142.072 233.279 145.83 237.625 149.625C242.947 154.271 248.332 158.776 254 163C259.482 159.099 264.445 154.826 269.36 150.245C273.544 146.366 277.907 142.758 282.352 139.18C284.973 137.022 287.492 134.787 290 132.5C294.382 128.509 298.91 124.737 303.52 121.012C305.519 119.39 307.484 117.74 309.437 116.062C313.557 112.747 316.431 111.68 321.75 111.562C322.735 111.523 323.72 111.483 324.734 111.441C332.168 112.713 337.455 118.077 342.371 123.465C343.533 124.689 344.697 125.913 345.861 127.135C347.663 129.041 349.454 130.955 351.225 132.89C352.957 134.773 354.722 136.62 356.496 138.465C357.275 139.343 357.275 139.343 358.069 140.238C359.675 141.877 360.918 143.026 363 144C366.2 143.857 368.968 142.966 372 142C374.855 141.883 374.855 141.883 377.187 142.125C377.965 142.189 378.742 142.254 379.543 142.32C386.072 144.126 390.712 149.43 395.332 154.102C396.009 154.779 396.686 155.457 397.384 156.155C398.806 157.58 400.225 159.007 401.642 160.436C403.818 162.63 406.001 164.816 408.186 167C409.568 168.388 410.95 169.776 412.332 171.164C412.986 171.819 413.64 172.474 414.314 173.15C414.915 173.757 415.517 174.365 416.136 174.991C416.666 175.525 417.197 176.059 417.743 176.609C420.337 179.479 420.345 182.233 420.27 186.023C420 188 420 188 418.5 190.5C415.671 192.197 413.418 192.757 410.109 192.559C403.731 190.868 398.622 183.652 394.109 179.031C393.593 178.502 393.077 177.974 392.544 177.429C390.395 175.224 388.246 173.018 386.116 170.794C384.542 169.153 382.952 167.529 381.359 165.906C380.88 165.398 380.401 164.89 379.907 164.366C378.41 162.799 378.41 162.799 376 161C372.814 161.089 371.795 162.155 369.187 164.125C366 166 366 166 362.625 166.25C358.306 164.761 356.296 162.747 353.285 159.398C351.388 157.407 349.486 155.663 347.402 153.879C342.179 149.364 337.357 144.465 332.5 139.562C331.123 138.179 331.123 138.179 329.719 136.768C327.477 134.514 325.237 132.258 323 130C318.594 131.621 315.713 133.826 312.375 137.062C308.504 140.718 304.591 144.225 300.437 147.562C296.672 150.594 293.057 153.726 289.5 157C284.173 161.895 278.637 166.469 273 171C271.645 172.123 271.645 172.123 270.262 173.269C268.957 174.343 268.957 174.343 267.625 175.437C266.854 176.076 266.083 176.714 265.289 177.371C260.62 180.694 256.697 181.491 251 181C243.756 178.91 238.634 173.831 233 169C231.954 168.116 230.907 167.233 229.859 166.352C227.119 164.044 224.387 161.727 221.657 159.407C218.941 157.101 216.22 154.801 213.5 152.5C212.424 151.59 211.349 150.68 210.273 149.769C208.029 147.87 205.784 145.972 203.539 144.074C202.971 143.594 202.403 143.113 201.818 142.618C200.704 141.677 199.589 140.738 198.473 139.8C195.561 137.349 192.734 134.831 189.937 132.25C187.353 129.748 187.353 129.748 185.03 130.165C182.65 131.144 181.378 132.273 179.58 134.111C178.933 134.765 178.285 135.419 177.618 136.093C176.929 136.804 176.241 137.514 175.531 138.246C174.814 138.972 174.097 139.699 173.358 140.447C171.064 142.77 168.781 145.103 166.5 147.437C164.218 149.768 161.933 152.095 159.642 154.417C158.217 155.862 156.797 157.312 155.382 158.768C154.734 159.425 154.087 160.082 153.42 160.759C152.572 161.628 152.572 161.628 151.707 162.513C148.678 165.152 146.735 166.014 142.687 165.937C139.321 165.082 137.94 164.435 135.27 162.441C134.653 161.986 134.037 161.53 133.402 161.061C132.708 160.536 132.708 160.536 132 160C129.475 162.496 126.956 164.997 124.437 167.5C123.733 168.196 123.029 168.892 122.303 169.609C116.907 174.98 111.829 180.552 107 186.437C104.046 188.745 101.705 188.935 98 189C94.4478 187.658 93.3185 186.584 91.5 183.25C90.8546 179.055 91.8192 176.515 94 173C96.8937 169.655 100.053 166.616 103.25 163.562C104.924 161.941 106.596 160.318 108.266 158.691C109.069 157.909 109.873 157.127 110.701 156.321C113.462 153.534 116.019 150.615 118.531 147.603C122.347 143.44 127.021 142.62 132.363 141.918C135 142 135 142 136.989 142.649C141.44 144.135 141.44 144.135 145.833 143.119C147.634 141.59 149.186 139.974 150.758 138.211C151.35 137.596 151.942 136.981 152.552 136.348C154.438 134.381 156.282 132.381 158.125 130.375C159.982 128.398 161.846 126.428 163.719 124.466C164.88 123.246 166.031 122.015 167.169 120.773C176.577 110.732 187.964 107.687 199.25 116.875Z" fill="#454545"/>
<path d="M98.6079 347.321C99.877 347.309 101.146 347.297 102.454 347.285C105.925 347.254 109.396 347.254 112.868 347.262C115.775 347.267 118.682 347.256 121.589 347.245C128.456 347.22 135.323 347.221 142.19 347.238C149.249 347.256 156.306 347.229 163.365 347.181C169.444 347.141 175.523 347.129 181.603 347.138C185.225 347.143 188.847 347.138 192.469 347.107C196.519 347.073 200.566 347.097 204.616 347.126C205.797 347.109 206.979 347.091 208.197 347.073C223.854 347.309 235.629 358.546 246.172 369.141C264.316 387.921 264.316 387.921 264.813 396.562C263.88 400.507 263.209 401.597 260 404C257.321 404.391 255.054 404.537 252.377 404.501C251.606 404.507 250.834 404.512 250.039 404.518C247.451 404.532 244.864 404.517 242.276 404.502C240.421 404.505 238.567 404.511 236.712 404.518C231.673 404.532 226.634 404.521 221.594 404.504C216.324 404.491 211.053 404.497 205.782 404.5C196.929 404.503 188.076 404.49 179.223 404.467C168.986 404.44 158.749 404.438 148.512 404.45C138.668 404.461 128.825 404.455 118.981 404.44C114.79 404.435 110.599 404.435 106.408 404.439C101.473 404.444 96.5377 404.434 91.6023 404.412C89.7902 404.407 87.9782 404.406 86.1662 404.411C83.6937 404.417 81.222 404.405 78.7495 404.388C78.0314 404.394 77.3134 404.4 76.5735 404.406C72.217 404.351 69.4782 403.65 66 401C63.6849 397.495 63.2868 394.216 63.3594 390.078C64.3438 385.348 66.8144 381.546 69.2993 377.472C72.8462 371.58 75.2914 365.554 77.4397 359.027C77.6904 358.313 77.941 357.599 78.1992 356.863C78.4038 356.237 78.6084 355.611 78.8191 354.966C83.6599 346.907 89.9906 347.271 98.6079 347.321ZM95 364C91.3122 371.99 87.6416 379.989 84 388C107.43 388 130.86 388 155 388C155 380.08 155 372.16 155 364C135.2 364 115.4 364 95 364ZM172 364C172 371.92 172 379.84 172 388C194.11 388 216.22 388 239 388C225.838 371.497 225.838 371.497 207.279 363.358C201.928 363.118 196.599 363.299 191.25 363.5C189.378 363.54 187.505 363.577 185.633 363.609C181.085 363.69 176.549 363.846 172 364Z" fill="#454545"/>
<path d="M373.25 206.562C374.464 206.832 375.679 207.102 376.93 207.379C421.548 217.517 473.445 235.162 499.75 275.5C500.852 277.322 501.936 279.155 503 281C503.463 281.789 503.926 282.578 504.402 283.391C514.351 301.654 515.039 324.68 509.263 344.432C503.386 362.781 494.011 378.981 482 394C481.192 395.013 480.384 396.026 479.551 397.07C460.777 420.112 460.777 420.112 453 424C446.031 424.45 446.031 424.45 442.562 422.937C440.207 420.017 440.064 417.705 440 414C442.158 409.387 445.501 406.487 449.25 403.187C454.202 398.712 458.821 394.222 463 389C463.744 388.094 464.488 387.188 465.254 386.254C483.264 363.896 496.548 338.35 494 309C492.218 296.834 485.813 286.257 478 277C477.576 276.431 477.152 275.863 476.715 275.277C468.249 264.326 455.029 256.492 443 250C442.281 249.61 441.562 249.22 440.822 248.818C415.309 235.244 386.514 227.244 358.203 222.117C357.501 221.988 356.798 221.858 356.075 221.725C354.306 221.407 352.532 221.12 350.758 220.836C347.518 219.854 346.137 218.585 344 216C343.062 214.187 343.062 214.187 343 212C347.686 198.836 361.967 204 373.25 206.562Z" fill="#454545"/>
<path d="M338.418 437.508C347.221 443.848 353.837 452.234 356 463C357.338 475.417 356.275 486.389 348.812 496.75C342 504.835 333.695 511.063 322.929 512.223C310.018 513.119 299.25 511.553 289.066 502.973C280.407 494.706 275.594 484.994 274.906 472.953C275.3 460.546 279.236 450.24 288.25 441.688C302.263 429.975 322.706 427.71 338.418 437.508ZM297 458C292.565 464.239 292.029 470.505 293 478C294.806 484.648 299.43 489.162 305 493C310.999 495.941 317.883 496.099 324.312 494.383C330.441 491.678 335.24 486.591 338.172 480.609C340.078 474.603 340.064 467.497 337.5 461.688C334.015 455.748 328.565 451.084 322 449C311.639 447.771 303.74 449.763 297 458Z" fill="#454545"/>
<path d="M118.418 437.508C127.221 443.848 133.837 452.234 136 463C137.338 475.417 136.275 486.389 128.812 496.75C122 504.835 113.695 511.063 102.929 512.223C90.0179 513.119 79.2495 511.553 69.0664 502.973C60.4068 494.706 55.5943 484.994 54.9062 472.953C55.3001 460.546 59.2358 450.24 68.25 441.688C82.263 429.975 102.706 427.71 118.418 437.508ZM77 458C72.5646 464.239 72.0289 470.505 73 478C74.8059 484.648 79.4301 489.162 85 493C90.9989 495.941 97.8828 496.099 104.312 494.383C110.441 491.678 115.24 486.591 118.172 480.609C120.078 474.603 120.064 467.497 117.5 461.688C114.015 455.748 108.565 451.084 102 449C91.6395 447.771 83.7396 449.763 77 458Z" fill="#454545"/>
<path d="M402.562 71.5C403.636 71.4897 404.71 71.4794 405.816 71.4688C412.717 72.6202 417.48 78.0937 422.375 82.75C423.038 83.374 423.7 83.998 424.383 84.6409C428.417 88.4533 432.37 92.3347 436.262 96.293C438.03 98.0298 439.865 99.6412 441.75 101.25C445.908 104.819 449.719 108.69 453.566 112.586C456.975 116.021 460.489 119.26 464.176 122.398C467.267 125.113 470.133 128.052 473 131C476.208 128.938 479.232 126.862 482.125 124.375C487.155 120.22 490.712 119.501 497.176 119.613C501.642 120.225 504.555 122.211 508 125C508.825 125.577 509.65 126.155 510.5 126.75C512.542 129.812 512.623 132.24 512.449 135.871C512 138 512 138 509.875 140.562C506.492 142.254 504.732 142.622 501 142C499.322 140.681 497.654 139.349 496 138C492.28 138.081 490.369 140.341 487.885 142.9C487.407 143.408 486.93 143.915 486.438 144.438C479.41 151.785 479.41 151.785 474.312 152.562C468.584 152.345 465.88 148.868 462 145C460.83 143.907 459.655 142.819 458.477 141.734C452.17 135.926 445.979 130.037 439.961 123.93C438.096 122.095 436.177 120.385 434.188 118.688C430.048 115.143 426.262 111.29 422.436 107.416C419.002 103.956 415.472 100.681 411.742 97.5391C409.949 95.9553 408.367 94.2614 406.75 92.5C405.842 91.675 404.935 90.85 404 90C400.344 90.2211 398.671 92.0341 396.25 94.625C393.722 97.3126 391.114 99.7846 388.312 102.18C385.197 104.876 382.285 107.693 379.422 110.656C378.654 111.45 377.885 112.244 377.094 113.062C375.508 114.712 373.93 116.368 372.359 118.031C371.596 118.815 370.833 119.599 370.047 120.406C369.365 121.121 368.682 121.836 367.979 122.572C366 124 366 124 363.908 123.867C360.912 122.505 359.017 120.294 356.75 117.938C355.858 117.018 354.966 116.099 354.047 115.152C353.371 114.442 352.696 113.732 352 113C356.349 107.734 360.979 103.059 366 98.4375C372.265 92.6265 378.386 86.7163 384.27 80.5173C389.599 75.0375 394.579 71.4231 402.562 71.5Z" fill="#454545"/>
<path d="M109.062 71.5625C110.147 71.5019 111.231 71.4413 112.348 71.3789C122.136 73.0434 128.965 81.6199 135.562 88.4375C140.996 94.0039 146.384 99.5167 152.324 104.547C153.971 105.975 155.547 107.374 157 109C156.91 112.947 154.339 115.126 151.688 117.812C150.518 119.029 150.518 119.029 149.324 120.27C147 122 147 122 145.149 121.886C142.188 120.665 140.528 118.847 138.297 116.555C137.398 115.642 136.5 114.729 135.574 113.789C134.632 112.818 133.691 111.847 132.75 110.875C124.466 102.385 124.466 102.385 115.665 94.4419C114 93 114 93 112.396 91.3125C111.094 89.7891 111.094 89.7891 109.141 89.9922C106.026 91.4587 104.12 93.6403 101.75 96.125C98.6218 99.3568 95.5015 102.532 92.0625 105.438C88.5232 108.454 85.265 111.694 82 115C78.1701 118.877 74.2795 122.562 70.125 126.094C67.306 128.623 64.6608 131.307 62 134C58.0375 138.006 54.0465 141.905 49.7266 145.531C47.9922 146.968 47.9922 146.968 46.4609 148.531C43.7942 151.098 41.8738 152.029 38.25 152.875C31.5164 152.474 26.6692 145.903 22.3945 141.254C21.0393 139.734 21.0393 139.734 19 138C16.2415 138 15.2298 138.808 13.125 140.562C10.1959 142.544 8.47393 142.496 4.99999 142C2.12499 140.562 2.12499 140.562 -5.06639e-06 138C-0.939727 134.776 -0.954771 132.222 -5.06639e-06 129C3.91498 124.012 8.93553 120.509 15.2461 119.719C23.9687 119.188 28.5865 122.902 35 128.312C36.0048 129.203 37.0067 130.097 38 131C41.6212 127.97 45.1288 124.932 48.4375 121.562C50.7888 119.169 53.1982 116.928 55.75 114.75C59.1584 111.817 62.344 108.699 65.5 105.5C68.5534 102.405 71.6232 99.3807 74.9375 96.5625C78.4432 93.5801 81.6555 90.3464 84.875 87.0625C99.7732 71.921 99.7732 71.921 109.062 71.5625Z" fill="#454545"/>
<path d="M345.688 262C347.112 262.33 347.112 262.33 348.565 262.667C363.872 266.468 378.986 273.934 387.746 287.531C390.991 293.92 392.562 299.501 392.5 306.688C392.494 307.472 392.489 308.257 392.483 309.065C392.118 321.085 386.449 331.104 380 341C379.517 341.761 379.033 342.521 378.535 343.305C376.525 346.078 375.133 347.699 371.766 348.594C367.648 348.863 365.66 348.547 362.438 345.875C360.71 342.419 360.547 340.839 361 337C362.35 334.201 364.059 331.685 365.812 329.125C372.005 319.956 375.374 312.316 374 301C371.697 293.585 365.024 288.93 358.5 285.375C350.793 281.732 342.408 279.829 334.066 278.227C332.208 277.867 332.208 277.867 330.312 277.5C329.195 277.304 328.077 277.108 326.926 276.906C323.598 275.875 322.194 274.663 320 272C319.062 270.188 319.062 270.188 319 268C323.324 255.852 334.981 259.512 345.688 262Z" fill="#454545"/>
<path d="M285.691 53.1055C286.453 53.7307 287.215 54.3559 288 55C288.71 55.5737 289.421 56.1473 290.152 56.7383C296.82 62.7144 302.603 71.7348 303.285 80.7852C303 84 303 84 301.438 86.375C298.172 88.5523 295.92 89 292 89C287.045 86.5226 285.505 82.243 283.238 77.4649C279.511 70.0448 273.529 65.8873 266 62.75C256.212 60.303 247.75 60.9532 238.809 65.8828C233.15 69.3782 230.167 72.9921 227.156 78.7813C224.974 82.9682 222.999 86.334 219 89C215.196 88.8617 212.749 88.4992 209.563 86.375C207.387 83.0685 207.712 80.9202 208 77C212.948 62.7608 222.045 53.9734 235.379 47.4224C251.352 39.9674 271.83 42.5706 285.691 53.1055Z" fill="#454545"/>
<path d="M151 467C187.3 467 223.6 467 261 467C261.495 475.415 261.495 475.415 262 484C225.04 484 188.08 484 150 484C150.33 478.39 150.66 472.78 151 467Z" fill="#454545"/>
<path d="M191.5 22.375C195.843 23.1506 197.325 24.7564 200 28C201.539 29.6895 203.081 31.3769 204.625 33.0625C212.575 41.8673 212.575 41.8673 212.273 48.0977C211.859 50.9795 211.316 52.1907 209 54C202.728 55.8815 202.728 55.8815 199.238 54.1016C192.937 49.0197 183.616 39.7491 182.562 31.625C183 28 183 28 185.062 25.0625C188 23 188 23 191.5 22.375Z" fill="#454545"/>
<path d="M320.5 22.375C324.959 23.1712 326.408 24.3081 329 28C329.468 32.0853 329.448 34.2694 327.277 37.8086C326.505 38.6761 325.733 39.5437 324.937 40.4375C324.114 41.3721 323.29 42.3066 322.441 43.2695C321.636 44.1706 320.83 45.0716 320 46C319.37 46.8082 318.739 47.6165 318.09 48.4492C315.289 52.0027 313.761 53.7509 309.375 55.1875C305.644 54.9802 303.906 54.3077 301 52C299.369 48.7374 299.368 45.5176 300 42C301.531 39.2485 303.525 37.0863 305.687 34.8125C306.483 33.9279 306.483 33.9279 307.295 33.0254C308.837 31.3238 310.413 29.6599 312 28C312.883 27.0474 313.766 26.0948 314.676 25.1133C317 23 317 23 320.5 22.375Z" fill="#454545"/>
<path d="M196 420C198.597 422.085 199.857 423.286 200.518 426.594C200.522 427.553 200.527 428.512 200.531 429.5C200.536 430.552 200.542 431.604 200.547 432.687C200.531 433.781 200.516 434.874 200.5 436C200.515 437.093 200.531 438.186 200.547 439.312C200.542 440.364 200.537 441.416 200.531 442.5C200.527 443.459 200.522 444.418 200.518 445.406C199.858 448.713 198.589 449.909 196 452C193.259 452.728 190.77 452.574 188 452C185.031 449.793 184.171 448.514 183 445C182.751 442.067 182.769 439.13 182.75 436.187C182.729 435.393 182.709 434.598 182.687 433.779C182.654 428.773 183.2 425.329 186 421C189.129 419.435 192.611 419.303 196 420Z" fill="#454545"/>
<path d="M260 -4.80115e-05C262.597 2.0846 263.857 3.28573 264.518 6.5937C264.522 7.55276 264.527 8.51183 264.531 9.49995C264.536 10.5518 264.542 11.6037 264.547 12.6875C264.531 13.7806 264.516 14.8737 264.5 16C264.515 17.0931 264.531 18.1862 264.547 19.3125C264.542 20.3643 264.537 21.4162 264.531 22.5C264.527 23.459 264.522 24.4181 264.518 25.4062C263.858 28.7129 262.589 29.909 260 32C257.259 32.728 254.77 32.5744 252 32C249.031 29.7925 248.171 28.514 247 25C246.751 22.0668 246.769 19.1301 246.75 16.1875C246.729 15.3927 246.709 14.598 246.687 13.7792C246.654 8.77289 247.2 5.32881 250 0.999952C253.129 -0.56476 256.611 -0.697068 260 -4.80115e-05Z" fill="#454545"/>
<path d="M224 9.99994C229.818 12.9799 232.004 19.0853 234 24.9999C234.77 29.0001 234.652 31.9125 232.5 35.4999C229 37.6 225.913 37.8529 222 36.9999C216.392 33.3479 213.702 26.2965 212 19.9999C212.281 16.0672 212.492 14.5511 215.188 11.6249C218.546 9.68456 220.182 9.36368 224 9.99994Z" fill="#454545"/>
<path d="M294 9.99998C297.241 11.8725 298.685 13.0543 299.875 16.6289C300.048 21.301 298.364 24.2653 296.187 28.3125C295.633 29.404 295.633 29.404 295.068 30.5176C292.3 35.8498 292.3 35.8498 290 37C282.948 37.5687 282.948 37.5687 279.5 35.5C277.327 31.878 277.131 29.0291 278 25C284.431 8.63293 284.431 8.63293 294 9.99998Z" fill="#454545"/>
<path d="M180 55.0001C185.524 57.3103 190.809 59.7478 194 65.0001C194.549 68.6882 194.234 70.5325 192.563 73.8751C189.385 76.5102 187.632 76.7887 183.582 76.5469C177.936 75.3511 172.336 72.7212 168.531 68.2891C167.245 65.8392 166.833 63.7453 167.441 61.0352C169.914 54.706 173.604 53.8998 180 55.0001Z" fill="#454545"/>
<path d="M340 54.9999C342.5 56.4999 342.5 56.4999 344 58.9999C344.689 63.822 344.874 65.7986 342 69.7499C336.293 74.0298 331.306 76.8157 323.988 76.4492C322 75.9999 322 75.9999 319.438 73.8749C317.746 70.4916 317.378 68.7317 318 64.9999C322.107 57.3469 331.723 53.7155 340 54.9999Z" fill="#454545"/>
<path d="M432 274C435.635 276.608 436.834 278.07 437.625 282.5C436.834 286.93 435.635 288.392 432 291C428.126 291.554 425.22 291.3 422 289C419.903 286.304 420.005 284.907 420.188 281.438C420.975 278.105 421.297 276.946 424 275C426.889 273.556 428.796 273.623 432 274Z" fill="#454545"/>
<path d="M406 258C408.828 260.605 409.867 262.2 410.5 266C409.848 269.911 409.069 271.455 406 274C402.856 274.715 400.144 274.715 397 274C393.931 271.455 393.152 269.911 392.5 266C393.119 262.285 394.357 260.643 397 258C400.607 256.798 402.358 256.959 406 258Z" fill="#454545"/>
<path d="M443.871 302.516C446 303 446 303 448.562 305.125C450.254 308.508 450.622 310.268 450 314C448.15 317.084 446.938 318.639 443.562 319.938C440.458 320.013 438.717 319.502 436 318C433.606 315.688 433.055 314.371 432.562 311.063C433.569 304.018 437.223 302.121 443.871 302.516Z" fill="#454545"/>
<path d="M419.871 359.516C422 360 422 360 424.562 362.125C426.254 365.508 426.622 367.268 426 371C424.562 373.875 424.562 373.875 422 376C418.856 376.715 416.144 376.715 413 376C409.931 373.455 409.152 371.911 408.5 368C409.664 361.016 413.218 359.121 419.871 359.516Z" fill="#454545"/>
<path d="M440 334C442.5 335.5 442.5 335.5 444 338C444.548 340.784 444.566 343.218 444 346C442.095 348.752 440.714 349.718 437.625 350.938C433.897 351.026 432.033 350.157 429 348C427.438 344.688 427.438 344.688 427 341C429.565 334.074 432.837 333.023 440 334Z" fill="#454545"/>
</g>
<defs>
<clipPath id="clip0_5_699">
<rect width="512" height="512" fill="white"/>
</clipPath>
</defs>
</svg>
