<svg width="128" height="128" viewBox="0 0 128 128" fill="none" xmlns="http://www.w3.org/2000/svg">
<g clip-path="url(#clip0_6_3)">
<path d="M91.7499 7.18752C97.2679 10.9221 103.522 15.5754 105.711 22.1289C106 24.0625 106 24.0625 106 27C106.99 27 107.98 27 109 27C115.565 42.4505 115.385 56.7077 109.711 72.6133C106.57 80.2967 102.78 87.2247 97.9999 94C97.3399 94.9578 96.6799 95.9156 95.9999 96.9024C87.86 108.109 77.5516 120.299 65.9999 128C61.9622 127.722 59.9029 126.421 56.9999 123.688C54.8499 121.702 52.7746 119.83 50.4374 118.063C46.8771 115.05 44.0022 111.559 40.9999 108C40.1878 107.064 39.3757 106.128 38.539 105.164C25.6686 90.2134 25.6686 90.2134 24.5976 83.4649C24.1978 80.8663 24.1978 80.8663 22.1054 79.1445C19.3659 76.3543 18.4376 73.3379 17.3124 69.6875C16.9944 68.7294 16.9944 68.7294 16.6699 67.752C12.1581 53.7043 12.9248 39.4497 19.3906 26.1367C26.5648 13.6951 36.5346 5.62315 50.1367 0.91408C64.6078 -2.50984 79.0203 -0.280087 91.7499 7.18752ZM49.9999 37C47.1968 42.6685 46.231 48.7805 47.8749 54.9375C49.8571 59.4789 52.6017 62.6773 56.9999 65C62.1082 66.5475 66.4853 66.5968 71.3749 64.375C76.0359 61.6123 78.7294 58.4049 80.4374 53.25C81.455 48.3473 80.4359 44.3288 77.9999 40C74.015 35.5181 70.511 33.2203 64.4374 32.6875C59.125 32.8449 54.2369 33.6227 49.9999 37Z" fill="#FD4949"/>
<path d="M91.75 7.18755C97.268 10.9222 103.522 15.5754 105.711 22.129C106 24.0626 106 24.0626 106 27.0001C106.99 27.0001 107.98 27.0001 109 27.0001C115.565 42.4506 115.385 56.7078 109.711 72.6133C106.57 80.2967 102.78 87.2247 98 94.0001C97.34 94.9578 96.68 95.9156 96 96.9024C87.8601 108.109 77.5517 120.299 66 128C61.9623 127.722 59.9029 126.421 57 123.688C54.8499 121.702 52.7747 119.83 50.4375 118.063C46.8772 115.05 44.0023 111.559 41 108C40.1879 107.064 39.3758 106.128 38.5391 105.164C25 89.4345 25 89.4345 25 83.0001C26.32 83.0001 27.64 83.0001 29 83.0001C30.7188 85.1329 30.7188 85.1329 32.5 88.1251C37.3181 95.7193 42.9755 102.34 49 109C49.4733 109.531 49.9465 110.061 50.4341 110.608C51.7487 112.069 53.0924 113.504 54.4375 114.938C55.1994 115.751 55.9612 116.564 56.7461 117.402C58.8759 119.232 58.8759 119.232 61.4727 119.035C77.4811 112.478 90.1559 87.8303 97 73.0001C97.4744 72.0113 97.9488 71.0226 98.4375 70.004C101.075 63.5478 101.365 57.2644 101.438 50.3751C101.453 49.0684 101.453 49.0684 101.469 47.7354C101.3 35.3985 96.7296 24.9585 88.5 15.8126C81.8514 9.58265 73.1173 4.64189 63.875 4.37505C53.2004 5.11319 42.0798 7.79094 34.3477 15.6876C33 17.0001 33 17.0001 31 17.0001C30.719 17.5853 30.438 18.1705 30.1485 18.7735C29.0852 20.835 27.9122 22.6985 26.625 24.6251C25.7377 26.0759 24.8629 27.5345 24 29.0001C23.3987 29.992 23.3987 29.992 22.7852 31.004C17.6039 41.3113 18.3359 55.8346 21.7483 66.6243C22.7526 69.4487 23.8723 72.2231 25 75.0001C25.3642 76.3253 25.7141 77.6558 26 79.0001C24.02 79.4951 24.02 79.4951 22 80.0001C14.5951 66.2116 11.5977 51.2325 15.625 35.8751C20.3593 20.7555 29.2914 11.0154 43.125 3.75005C58.4173 -3.99804 77.4911 -1.1772 91.75 7.18755Z" fill="#E2333D"/>
<path d="M106 27C106.99 27 107.98 27 109 27C115.565 42.4505 115.385 56.7077 109.711 72.6133C106.57 80.2967 102.78 87.2247 98 94C97.34 94.9578 96.68 95.9155 96 96.9023C87.8601 108.109 77.5516 120.299 66 128C61.9622 127.722 59.9029 126.421 57 123.688C54.8499 121.702 52.7747 119.83 50.4375 118.062C46.8771 115.05 44.0023 111.559 41 108C40.1879 107.064 39.3758 106.128 38.5391 105.164C25 89.4344 25 89.4344 25 83C26.32 83 27.64 83 29 83C30.7188 85.1328 30.7188 85.1328 32.5 88.125C38.9858 98.3342 47.0552 107.185 55.5 115.812C55.9921 116.322 56.4842 116.832 56.9912 117.357C60.42 120.898 60.42 120.898 65 122C66.8616 120.974 66.8616 120.974 68.5625 119.25C69.2599 118.594 69.9573 117.938 70.6758 117.262C71.8263 116.142 71.8263 116.142 73 115C73.8392 114.223 74.6784 113.445 75.543 112.645C87.8557 100.9 97.1818 87.5711 104 72C104.454 71.0435 104.907 70.087 105.375 69.1016C108.119 62.4517 108.371 55.9778 108.438 48.875C108.448 47.9564 108.458 47.0378 108.469 46.0913C108.385 39.6357 107.157 34.0753 105 28C105.33 27.67 105.66 27.34 106 27Z" fill="#060101"/>
<path d="M91.75 7.18755C96.9115 10.6635 101.604 14.7349 105 20.0001C105 21.3201 105 22.6401 105 24.0001C102.672 23.6145 101.336 23.3533 99.6836 21.6172C99.0668 20.7549 99.0668 20.7549 98.4375 19.8751C92.1523 12.1418 82.7566 7.6892 73.25 5.31255C59.4323 3.98393 47.4243 5.67573 36 14.0001C35.1821 14.8354 35.1821 14.8354 34.3477 15.6876C33 17.0001 33 17.0001 31 17.0001C30.719 17.5853 30.438 18.1705 30.1485 18.7735C29.0852 20.835 27.9122 22.6985 26.625 24.6251C25.7377 26.0759 24.8629 27.5345 24 29.0001C23.3987 29.992 23.3987 29.992 22.7852 31.004C17.6039 41.3113 18.3359 55.8346 21.7483 66.6243C22.7526 69.4487 23.8723 72.2231 25 75.0001C25.3642 76.3253 25.7141 77.6558 26 79.0001C24.02 79.4951 24.02 79.4951 22 80.0001C14.5951 66.2116 11.5977 51.2325 15.625 35.8751C20.3593 20.7555 29.2914 11.0154 43.125 3.75005C58.4173 -3.99804 77.4911 -1.1772 91.75 7.18755Z" fill="#080202"/>
<path d="M72.8126 29.9999C77.8596 33.1667 81.4202 37.3211 84.4376 42.4374C85.85 48.8719 85.5983 54.335 82.3399 60.1445C79.2092 64.4801 74.9714 67.9951 70.0001 69.9999C63.1276 70.9326 57.3616 70.6709 51.6837 66.4921C47.1221 62.4491 43.444 58.1936 42.7813 51.9335C42.5611 46.5108 43.5402 42.8173 46.0001 37.9999C47.3201 37.9999 48.6401 37.9999 50.0001 37.9999C49.0001 43.9999 49.0001 43.9999 48.2501 46.8124C47.777 52.8446 49.6701 57.4429 53.5626 61.9999C58.0814 64.6291 61.7926 65.4018 67.0001 64.9999C71.6068 63.7221 74.3536 61.7624 77.4376 58.1249C79.9279 53.1443 80.4247 49.7841 78.9376 44.4374C77.2353 39.7856 75.0918 37.7277 71.0001 34.9999C65.13 33.0432 60.5408 33.6913 55.0001 35.9999C52.6876 35.6249 52.6876 35.6249 51.0001 34.9999C51.9358 32.6608 52.5734 31.2769 54.7149 29.8867C60.3774 27.6894 67.0655 28.4925 72.8126 29.9999Z" fill="#0A0303"/>
</g>
<defs>
<clipPath id="clip0_6_3">
<rect width="128" height="128" fill="white"/>
</clipPath>
</defs>
</svg>
